<svg width="30" height="30" viewBox="0 0 30 30" fill="none" xmlns="http://www.w3.org/2000/svg">
	<rect x="0.5" y="0.5" width="29" height="29" rx="14.5" fill="#F0F0F0" />
	<g clip-path="url(#clip0_665_1759)">
		<path d="M22.5 13.3333C22.5 19.1666 15 24.1666 15 24.1666C15 24.1666 7.5 19.1666 7.5 13.3333C7.5 11.3442 8.29018 9.43653 9.6967 8.03001C11.1032 6.62349 13.0109 5.83331 15 5.83331C16.9891 5.83331 18.8968 6.62349 20.3033 8.03001C21.7098 9.43653 22.5 11.3442 22.5 13.3333Z" stroke="black" stroke-width="2" stroke-linecap="round" stroke-linejoin="round" />
		<path d="M15 15.8333C16.3807 15.8333 17.5 14.714 17.5 13.3333C17.5 11.9526 16.3807 10.8333 15 10.8333C13.6193 10.8333 12.5 11.9526 12.5 13.3333C12.5 14.714 13.6193 15.8333 15 15.8333Z" stroke="black" stroke-width="2" stroke-linecap="round" stroke-linejoin="round" />
	</g>
	<rect x="0.5" y="0.5" width="29" height="29" rx="14.5" stroke="#F0F0F0" />
	<defs>
		<clipPath id="clip0_665_1759">
			<rect width="20" height="20" fill="white" transform="translate(5 5)" />
		</clipPath>
	</defs>
</svg>
