<svg width="55" height="55" viewBox="0 0 55 55" fill="none" xmlns="http://www.w3.org/2000/svg">
<path d="M17.832 12.5469H37.2109C37.8555 12.5469 38.3711 12.0313 38.3711 11.3867C38.3711 10.7422 37.8555 10.2266 37.2109 10.2266H17.832C17.1875 10.2266 16.6719 10.7422 16.6719 11.3867C16.6719 12.0313 17.1875 12.5469 17.832 12.5469ZM17.832 19.8945H37.2109C37.8555 19.8945 38.3711 19.3789 38.3711 18.7344C38.3711 18.0898 37.8125 17.6172 37.168 17.6172H17.832C17.1875 17.6172 16.6719 18.1328 16.6719 18.7773C16.6719 19.4219 17.1875 19.8945 17.832 19.8945ZM25.1797 48.082C24.0195 48.2969 22.8594 47.7812 22.2148 46.8359L22 46.5352L19.25 52.25L21.8711 52.1641L23.4609 54.2695L26.5117 47.9102H26.4688L25.1797 48.082ZM31.8828 46.9219L30.8945 47.8242C30.3359 48.3398 29.6055 48.5977 28.875 48.5977C28.832 48.5977 28.832 48.5977 28.7891 48.5977L31.4961 54.2266L33.043 52.1211L35.6641 52.207L33.0859 46.707L31.8828 46.9219ZM31.2813 45.7188L32.957 45.418C33.6016 45.2891 34.1172 44.8164 34.2891 44.2148L34.7188 42.5391L36.0078 41.3789C36.4805 40.9492 36.6523 40.2617 36.4805 39.6172L35.9648 37.9844L36.3945 36.3086C36.5664 35.6641 36.3516 35.0195 35.8359 34.5898L34.5039 33.5156L33.9883 31.8828C33.7734 31.2383 33.2578 30.8086 32.5703 30.7227L30.8516 30.5078L29.5195 29.4336C29.0039 29.0039 28.3164 28.918 27.7148 29.2188L26.2109 29.9922L24.4922 29.7773C23.8477 29.6914 23.2031 29.9922 22.8594 30.5937L21.957 32.0547L20.4102 32.8281C19.8086 33.1289 19.4648 33.7305 19.4648 34.375L19.5078 36.0938L18.6055 37.5547C18.2617 38.1133 18.3047 38.8438 18.6484 39.3594L19.6367 40.7773L19.6797 42.4961C19.6797 43.1406 20.1094 43.7422 20.7109 44L22.3438 44.6875L23.332 46.1055C23.7188 46.6641 24.3633 46.9219 25.0078 46.793L26.6836 46.4922L28.2734 47.1797C28.875 47.4375 29.5625 47.3086 30.0781 46.8789L31.2813 45.7188Z" fill="#191E32"/>
<path d="M44.8594 0.773438H27.5H10.1406C9.15234 0.773438 8.33594 1.58984 8.33594 2.57812V44.9883C8.33594 45.9766 9.15234 46.793 10.1406 46.793H19.7656L20.2383 45.8477L20.0234 45.7617C18.9492 45.2891 18.1758 44.3437 17.918 43.2266H11.9453V4.38281H27.5H43.0547V43.1836H36.8672L36.4805 43.5273L36.1797 44.6445C36.0078 45.332 35.5781 45.9766 35.0625 46.4062L35.2344 46.75H44.8594C45.8477 46.75 46.6641 45.9336 46.6641 44.9453V2.57812C46.6641 1.58984 45.8477 0.773438 44.8594 0.773438Z" fill="#191E32"/>
</svg>
