<svg width="55" height="55" viewBox="0 0 55 55" fill="none" xmlns="http://www.w3.org/2000/svg">
<path d="M6.0498 4.30005V50.7001C6.0498 51.2523 6.49752 51.7001 7.04981 51.7001H32.5498C33.1021 51.7001 33.5498 51.2523 33.5498 50.7001V4.30005C33.5498 3.74776 33.1021 3.30005 32.5498 3.30005H7.0498C6.49752 3.30005 6.0498 3.74777 6.0498 4.30005Z" stroke="#191E32" stroke-width="4"/>
<path d="M27.404 33.8014C27.8593 33.8014 28.3043 33.6638 28.6829 33.4059C29.0614 33.1481 29.3564 32.7816 29.5307 32.3528C29.7049 31.924 29.7505 31.4522 29.6617 30.997C29.5728 30.5418 29.3536 30.1237 29.0317 29.7955C28.7098 29.4673 28.2996 29.2438 27.8531 29.1533C27.4066 29.0628 26.9437 29.1092 26.5231 29.2868C26.1025 29.4644 25.743 29.7652 25.49 30.1511C25.2371 30.537 25.1021 30.9907 25.1021 31.4548C25.1026 32.077 25.3453 32.6735 25.7769 33.1135C26.2085 33.5534 26.7937 33.8008 27.404 33.8014ZM27.404 30.6726C27.5558 30.6726 27.7041 30.7185 27.8303 30.8044C27.9565 30.8904 28.0548 31.0125 28.1129 31.1555C28.171 31.2984 28.1862 31.4557 28.1566 31.6074C28.1269 31.7591 28.0539 31.8985 27.9466 32.0079C27.8393 32.1173 27.7025 32.1918 27.5537 32.222C27.4048 32.2522 27.2506 32.2367 27.1104 32.1775C26.9702 32.1183 26.8503 32.018 26.766 31.8894C26.6817 31.7607 26.6367 31.6095 26.6367 31.4548C26.6367 31.2474 26.7175 31.0484 26.8614 30.9017C27.0053 30.755 27.2005 30.6726 27.404 30.6726Z" fill="#191E32"/>
<path d="M11.5503 9.6437C11.5503 9.03619 12.0428 8.5437 12.6503 8.5437H28.0503C28.6578 8.5437 29.1503 9.03619 29.1503 9.6437C29.1503 10.2512 28.6578 10.7437 28.0503 10.7437H12.6503C12.0428 10.7437 11.5503 10.2512 11.5503 9.6437Z" fill="#191E32"/>
<path d="M11.5503 14.4495C11.5503 13.842 12.0428 13.3495 12.6503 13.3495H28.0503C28.6578 13.3495 29.1503 13.842 29.1503 14.4495C29.1503 15.057 28.6578 15.5495 28.0503 15.5495H12.6503C12.0428 15.5495 11.5503 15.057 11.5503 14.4495Z" fill="#191E32"/>
<path d="M11.5503 19.2554C11.5503 18.6478 12.0428 18.1554 12.6503 18.1554H28.0503C28.6578 18.1554 29.1503 18.6478 29.1503 19.2554C29.1503 19.8629 28.6578 20.3554 28.0503 20.3554H12.6503C12.0428 20.3554 11.5503 19.8629 11.5503 19.2554Z" fill="#191E32"/>
<path d="M41.2496 40.1501H39.5996V41.2501H41.2496V40.1501Z" fill="#191E32"/>
<path d="M41.2496 37.9502H39.5996V39.0502H41.2496V37.9502Z" fill="#191E32"/>
<path d="M41.2496 35.75H39.5996V36.85H41.2496V35.75Z" fill="#191E32"/>
<path d="M41.2496 33.55H39.5996V34.65H41.2496V33.55Z" fill="#191E32"/>
<path d="M41.2496 31.3501H39.5996V32.4501H41.2496V31.3501Z" fill="#191E32"/>
<path d="M41.2496 29.1501H39.5996V30.2501H41.2496V29.1501Z" fill="#191E32"/>
<path d="M41.2496 26.9502H39.5996V28.0502H41.2496V26.9502Z" fill="#191E32"/>
<path d="M41.2496 24.75H39.5996V25.85H41.2496V24.75Z" fill="#191E32"/>
<path d="M41.2496 22.55H39.5996V23.65H41.2496V22.55Z" fill="#191E32"/>
<path d="M43.9996 37.9502H42.3496V39.0502H43.9996V37.9502Z" fill="#191E32"/>
<path d="M43.9996 33.55H42.3496V34.65H43.9996V33.55Z" fill="#191E32"/>
<path d="M43.9996 29.1501H42.3496V30.2501H43.9996V29.1501Z" fill="#191E32"/>
<path d="M43.9996 24.75H42.3496V25.85H43.9996V24.75Z" fill="#191E32"/>
<path d="M39.5996 42.9001H45.0996C46.5583 42.9001 47.9572 43.4796 48.9887 44.5111C50.0201 45.5425 50.5996 46.9415 50.5996 48.4001C50.5996 49.8588 50.0201 51.2578 48.9887 52.2892C47.9572 53.3207 46.5583 53.9001 45.0996 53.9001H39.5996V42.9001Z" fill="#191E32"/>
<path d="M39.5996 53.3501H43.9996C45.184 53.3489 46.3364 52.9654 47.2853 52.2565C48.2343 51.5477 48.929 50.5515 49.2662 49.4161C49.6035 48.2807 49.5652 47.0668 49.157 45.9549C48.7489 44.843 47.9927 43.8926 47.001 43.245C46.3927 43.018 45.7488 42.9013 45.0996 42.9001H39.5996V53.3501Z" fill="#191E32"/>
<path d="M39.5996 51.7001H45.0996C45.9748 51.7001 46.8142 51.3524 47.4331 50.7336C48.0519 50.1147 48.3996 49.2753 48.3996 48.4001C48.3996 47.5249 48.0519 46.6855 47.4331 46.0666C46.8142 45.4478 45.9748 45.1001 45.0996 45.1001H39.5996" fill="#B4C8FF"/>
<path d="M47.1401 50.9906C47.524 50.5044 47.7632 49.9199 47.8302 49.304C47.8972 48.6881 47.7893 48.0658 47.5189 47.5084C47.2485 46.951 46.8266 46.481 46.3014 46.1524C45.7763 45.8237 45.1691 45.6497 44.5496 45.6501H39.5996V51.7001H45.0996C45.8403 51.7004 46.5594 51.4504 47.1401 50.9906Z" fill="#B4C8FF"/>
<path d="M45.1 49.5C45.7075 49.5 46.2 49.0076 46.2 48.4C46.2 47.7925 45.7075 47.3 45.1 47.3C44.4925 47.3 44 47.7925 44 48.4C44 49.0076 44.4925 49.5 45.1 49.5Z" fill="#191E32"/>
<path d="M45.0998 42.3501H44.5498V20.9001C44.5498 20.7542 44.4919 20.6143 44.3887 20.5112C44.2856 20.408 44.1457 20.3501 43.9998 20.3501H39.5998C39.4539 20.3501 39.314 20.408 39.2109 20.5112C39.1078 20.6143 39.0498 20.7542 39.0498 20.9001V53.9001C39.0498 54.046 39.1078 54.1859 39.2109 54.289C39.314 54.3921 39.4539 54.4501 39.5998 54.4501H45.0998C46.7044 54.4501 48.2432 53.8127 49.3778 52.6781C50.5124 51.5435 51.1498 50.0047 51.1498 48.4001C51.1498 46.7955 50.5124 45.2567 49.3778 44.1221C48.2432 42.9875 46.7044 42.3501 45.0998 42.3501ZM43.4498 21.4501V24.7501H42.3498V25.8501H43.4498V29.1501H42.3498V30.2501H43.4498V33.5501H42.3498V34.6501H43.4498V37.9501H42.3498V39.0501H43.4498V42.3501H40.1498V41.2501H41.2498V40.1501H40.1498V39.0501H41.2498V37.9501H40.1498V36.8501H41.2498V35.7501H40.1498V34.6501H41.2498V33.5501H40.1498V32.4501H41.2498V31.3501H40.1498V30.2501H41.2498V29.1501H40.1498V28.0501H41.2498V26.9501H40.1498V25.8501H41.2498V24.7501H40.1498V23.6501H41.2498V22.5501H40.1498V21.4501H43.4498ZM40.1498 45.6501H45.0998C45.8292 45.6501 46.5286 45.9398 47.0443 46.4556C47.5601 46.9713 47.8498 47.6707 47.8498 48.4001C47.8498 49.1294 47.5601 49.8289 47.0443 50.3446C46.5286 50.8604 45.8292 51.1501 45.0998 51.1501H40.1498V45.6501ZM45.0998 53.3501H40.1498V52.2501H45.0998C46.1209 52.2501 47.1002 51.8445 47.8222 51.1225C48.5442 50.4004 48.9498 49.4212 48.9498 48.4001C48.9498 47.379 48.5442 46.3997 47.8222 45.6777C47.1002 44.9557 46.1209 44.5501 45.0998 44.5501H40.1498V43.4501H45.0998C46.4126 43.4501 47.6717 43.9716 48.6 44.8999C49.5283 45.8282 50.0498 47.0873 50.0498 48.4001C50.0498 49.7129 49.5283 50.972 48.6 51.9003C47.6717 52.8286 46.4126 53.3501 45.0998 53.3501Z" fill="#191E32" stroke="#191E32" stroke-width="0.5"/>
<path d="M46.7497 48.4C46.7497 48.0737 46.6529 47.7547 46.4716 47.4833C46.2903 47.212 46.0326 47.0005 45.7311 46.8756C45.4296 46.7507 45.0979 46.718 44.7778 46.7817C44.4577 46.8454 44.1637 47.0025 43.933 47.2333C43.7022 47.464 43.5451 47.758 43.4814 48.0781C43.4177 48.3982 43.4504 48.7299 43.5753 49.0314C43.7002 49.3329 43.9117 49.5906 44.183 49.7719C44.4544 49.9532 44.7734 50.05 45.0997 50.05C45.5373 50.05 45.957 49.8762 46.2664 49.5667C46.5759 49.2573 46.7497 48.8376 46.7497 48.4ZM44.5497 48.4C44.5497 48.2912 44.582 48.1849 44.6424 48.0944C44.7028 48.004 44.7887 47.9335 44.8892 47.8919C44.9897 47.8502 45.1003 47.8393 45.207 47.8606C45.3137 47.8818 45.4117 47.9342 45.4886 48.0111C45.5655 48.088 45.6179 48.186 45.6391 48.2927C45.6604 48.3994 45.6495 48.51 45.6078 48.6105C45.5662 48.711 45.4957 48.7969 45.4053 48.8573C45.3148 48.9177 45.2085 48.95 45.0997 48.95C44.9538 48.95 44.8139 48.8921 44.7108 48.7889C44.6077 48.6858 44.5497 48.5459 44.5497 48.4Z" fill="#191E32"/>
</svg>
