<svg width="55" height="55" viewBox="0 0 55 55" fill="none" xmlns="http://www.w3.org/2000/svg">
<g clip-path="url(#clip0_641_2129)">
<path d="M50.1938 43.1856V43.185C50.1909 40.6194 49.1704 38.1596 47.3562 36.3454C45.542 34.5312 43.0822 33.5107 40.5166 33.5078H40.516H37.6509H37.4618L37.32 33.6329C36.6222 34.2488 35.8597 34.7875 35.0461 35.2394L33.3589 36.1765H35.2888H38.2806V41.4341H19.3898V36.1765H22.3815H24.3115L22.6243 35.2394C21.8106 34.7875 21.0482 34.2488 20.3503 33.6329L20.2086 33.5078H20.0195L17.1544 33.5078L17.1538 33.5078C14.5881 33.5107 12.1284 34.5312 10.3142 36.3454C8.49997 38.1596 7.47947 40.6194 7.47656 43.185V43.1856V57.3695C7.47656 57.7234 7.61715 58.0627 7.86738 58.313C8.11762 58.5632 8.45702 58.7038 8.81091 58.7038C9.1648 58.7038 9.50419 58.5632 9.75443 58.313C10.0047 58.0628 10.1453 57.7234 10.1453 57.3695V44.1028H47.5251V57.3695C47.5251 57.7234 47.6657 58.0627 47.9159 58.313C48.1662 58.5632 48.5056 58.7038 48.8594 58.7038C49.2133 58.7038 49.5527 58.5632 49.803 58.313C50.0532 58.0627 50.1938 57.7234 50.1938 57.3695V43.1856ZM39.3473 41.4341V36.1765H39.482V41.4341H39.3473ZM45.9919 38.8195C46.6107 39.5947 47.0539 40.4867 47.2999 41.4341H40.5488V36.3528C43.0798 36.3488 45.0746 37.6705 45.9919 38.8195ZM18.323 36.1765V41.4341H18.1883V36.1765H18.323ZM17.1216 41.4341H10.3705C10.6165 40.4867 11.0596 39.5947 11.6785 38.8195C12.5865 37.682 14.3518 36.5081 17.1216 36.381V41.4341Z" fill="#191E32" stroke="#191E32"/>
<path d="M40.4882 13.7522L40.9833 13.6813L40.982 13.6734C40.5718 11.0998 39.3851 8.71295 37.5808 6.83241C35.8546 5.0332 33.6419 3.77965 31.2166 3.22235C31.1085 2.83163 30.892 2.47649 30.5886 2.20006C30.1914 1.83815 29.6737 1.63707 29.1363 1.63599H29.1353L27.4666 1.63599L27.4656 1.63599C26.9282 1.63707 26.4105 1.83815 26.0133 2.20006L26.3485 2.56793L26.0133 2.20006C25.7099 2.47649 25.4934 2.83163 25.3853 3.22235C22.96 3.77965 20.7473 5.0332 19.0211 6.83241C17.2168 8.71295 16.0301 11.0998 15.6199 13.6734L15.6199 13.6734L15.6187 13.6814L16.1137 13.7522L15.6187 13.6814L15.6187 13.6815L15.6187 13.6818L15.6185 13.6831L15.6178 13.6881L15.615 13.7074L15.6047 13.7804C15.5958 13.8434 15.5832 13.9334 15.5681 14.042C15.5381 14.2591 15.4983 14.551 15.4597 14.8492C15.4212 15.1467 15.3833 15.4535 15.3574 15.6995C15.3485 15.7837 15.3408 15.8629 15.3348 15.9334C14.9039 16.2295 14.5563 16.6341 14.3287 17.1087C14.0588 17.6713 13.9712 18.304 14.0779 18.9188C14.1846 19.5336 14.4804 20.0998 14.924 20.5386C15.2616 20.8725 15.6721 21.12 16.1205 21.2633C16.1203 21.2841 16.1201 21.305 16.1201 21.3259C16.1201 24.5565 17.4035 27.6547 19.6878 29.9391C21.9722 32.2234 25.0704 33.5067 28.301 33.5067C31.5315 33.5067 34.6298 32.2234 36.9141 29.9391C39.1984 27.6547 40.4818 24.5565 40.4818 21.3259C40.4818 21.3048 40.4817 21.2837 40.4814 21.2627C40.9297 21.1193 41.34 20.8717 41.6775 20.5378C42.1209 20.099 42.4165 19.5329 42.5232 18.9183C42.6299 18.3036 42.5423 17.671 42.2727 17.1085C42.0452 16.634 41.6978 16.2293 41.2671 15.9331C41.2611 15.8627 41.2534 15.7835 41.2445 15.6993C41.2186 15.4534 41.1807 15.1466 41.1422 14.8491C41.1036 14.5509 41.0638 14.2591 41.0338 14.042C41.0187 13.9334 41.0061 13.8434 40.9972 13.7804L40.9869 13.7074L40.9842 13.6881L40.9834 13.6831L40.9833 13.6818L40.9832 13.6815L40.9832 13.6814L40.4882 13.7522ZM22.1547 7.63128C23.1007 6.91369 24.1646 6.3674 25.2979 6.01671V7.9764C25.2979 8.55157 25.5264 9.10319 25.9331 9.50989C26.3398 9.9166 26.8914 10.1451 27.4666 10.1451H29.1353C29.7105 10.1451 30.2621 9.9166 30.6688 9.50989C31.0755 9.10319 31.304 8.55157 31.304 7.9764V6.01671C32.4374 6.3674 33.5012 6.91369 34.4472 7.63128C34.0562 8.29292 33.635 9.32826 33.2778 10.6454C32.8586 12.1912 32.5164 14.1663 32.4189 16.4706H24.183C24.0855 14.1663 23.7433 12.1912 23.3241 10.6454C22.967 9.32826 22.5457 8.29292 22.1547 7.63128ZM18.7892 21.4087H37.8127C37.7911 23.9016 36.7914 26.2877 35.0271 28.052C33.2432 29.8359 30.8237 30.8381 28.301 30.8381C25.7782 30.8381 23.3587 29.8359 21.5749 28.052C19.8105 26.2877 18.8109 23.9016 18.7892 21.4087ZM39.801 18.6421L40.1546 18.9957L39.801 18.6421C39.7383 18.7048 39.6533 18.7401 39.5646 18.7401H17.0373C16.9486 18.7401 16.8636 18.7048 16.8009 18.6421C16.7382 18.5794 16.703 18.4944 16.703 18.4057C16.703 18.317 16.7382 18.232 16.8009 18.1693C16.8636 18.1066 16.9486 18.0714 17.0373 18.0714H39.5646C39.6533 18.0714 39.7383 18.1066 39.801 18.1693C39.8637 18.232 39.899 18.317 39.899 18.4057C39.899 18.4944 39.8637 18.5794 39.801 18.6421ZM35.8132 10.9776C35.9592 10.489 36.1546 10.0173 36.3962 9.56986C37.4052 10.8893 38.0763 12.4399 38.3454 14.086L38.5929 16.4706H36.8597H35.086C35.1352 15.1065 35.2856 13.1398 35.5287 12.0211L35.8132 10.9776ZM26.8986 4.30468H29.7033V7.4764H26.8986V4.30468ZM18.0091 16.4706L18.2565 14.0864C18.5256 12.4404 19.1966 10.8899 20.2055 9.57052C20.4483 10.0203 20.6445 10.4943 20.7907 10.9853L21.0716 12.015C21.3157 13.1355 21.4667 15.1046 21.5159 16.4706H18.0091Z" fill="#191E32" stroke="#191E32"/>
<line x1="17.5532" y1="18.2234" x2="39.0484" y2="18.2234" stroke="#B4C8FF" stroke-width="2" stroke-linecap="round"/>
</g>
<defs>
<clipPath id="clip0_641_2129">
<rect width="55" height="55" fill="white"/>
</clipPath>
</defs>
</svg>
